<svg id="visual" viewBox="0 0 960 200" width="960" height="200" xmlns="http://www.w3.org/2000/svg" xmlns:xlink="http://www.w3.org/1999/xlink" version="1.1"><rect x="0" y="0" width="960" height="200" fill="#0091ff"></rect><path d="M0 93L22.8 89.8C45.7 86.7 91.3 80.3 137 77C182.7 73.7 228.3 73.3 274 77.5C319.7 81.7 365.3 90.3 411.2 94.8C457 99.3 503 99.7 548.8 102.5C594.7 105.3 640.3 110.7 686 111.3C731.7 112 777.3 108 823 101.7C868.7 95.3 914.3 86.7 937.2 82.3L960 78L960 201L937.2 201C914.3 201 868.7 201 823 201C777.3 201 731.7 201 686 201C640.3 201 594.7 201 548.8 201C503 201 457 201 411.2 201C365.3 201 319.7 201 274 201C228.3 201 182.7 201 137 201C91.3 201 45.7 201 22.8 201L0 201Z" fill="#806616"></path><path d="M0 129L22.8 127.8C45.7 126.7 91.3 124.3 137 127.7C182.7 131 228.3 140 274 140C319.7 140 365.3 131 411.2 127.7C457 124.3 503 126.7 548.8 130.2C594.7 133.7 640.3 138.3 686 141.2C731.7 144 777.3 145 823 142C868.7 139 914.3 132 937.2 128.5L960 125L960 201L937.2 201C914.3 201 868.7 201 823 201C777.3 201 731.7 201 686 201C640.3 201 594.7 201 548.8 201C503 201 457 201 411.2 201C365.3 201 319.7 201 274 201C228.3 201 182.7 201 137 201C91.3 201 45.7 201 22.8 201L0 201Z" fill="#372c06"></path></svg>