<svg id="visual" viewBox="0 0 900 450" width="900" height="450" xmlns="http://www.w3.org/2000/svg"
    xmlns:xlink="http://www.w3.org/1999/xlink" version="1.1">
    <!-- <rect x="0" y="0" width="900" height="450" fill="#001220"></rect> -->
    <path
        d="M0 373L7.8 372.5C15.7 372 31.3 371 47.2 372.2C63 373.3 79 376.7 94.8 376.5C110.7 376.3 126.3 372.7 142 371.3C157.7 370 173.3 371 189.2 373.3C205 375.7 221 379.3 236.8 382.3C252.7 385.3 268.3 387.7 284.2 387.3C300 387 316 384 331.8 380.7C347.7 377.3 363.3 373.7 379 371.5C394.7 369.3 410.3 368.7 426.2 370.3C442 372 458 376 473.8 380.5C489.7 385 505.3 390 521 392.5C536.7 395 552.3 395 568.2 391.2C584 387.3 600 379.7 615.8 376C631.7 372.3 647.3 372.7 663.2 376.2C679 379.7 695 386.3 710.8 388C726.7 389.7 742.3 386.3 758 384.7C773.7 383 789.3 383 805.2 382.2C821 381.3 837 379.7 852.8 381.3C868.7 383 884.3 388 892.2 390.5L900 393L900 451L892.2 451C884.3 451 868.7 451 852.8 451C837 451 821 451 805.2 451C789.3 451 773.7 451 758 451C742.3 451 726.7 451 710.8 451C695 451 679 451 663.2 451C647.3 451 631.7 451 615.8 451C600 451 584 451 568.2 451C552.3 451 536.7 451 521 451C505.3 451 489.7 451 473.8 451C458 451 442 451 426.2 451C410.3 451 394.7 451 379 451C363.3 451 347.7 451 331.8 451C316 451 300 451 284.2 451C268.3 451 252.7 451 236.8 451C221 451 205 451 189.2 451C173.3 451 157.7 451 142 451C126.3 451 110.7 451 94.8 451C79 451 63 451 47.2 451C31.3 451 15.7 451 7.8 451L0 451Z"
        fill="#4b3a04"></path>
    <path
        d="M0 409L7.8 409.5C15.7 410 31.3 411 47.2 410.5C63 410 79 408 94.8 405.8C110.7 403.7 126.3 401.3 142 401.2C157.7 401 173.3 403 189.2 405.2C205 407.3 221 409.7 236.8 410C252.7 410.3 268.3 408.7 284.2 407C300 405.3 316 403.7 331.8 402C347.7 400.3 363.3 398.7 379 400C394.7 401.3 410.3 405.7 426.2 405.7C442 405.7 458 401.3 473.8 401.2C489.7 401 505.3 405 521 406.7C536.7 408.3 552.3 407.7 568.2 405.8C584 404 600 401 615.8 401.7C631.7 402.3 647.3 406.7 663.2 406.8C679 407 695 403 710.8 403C726.7 403 742.3 407 758 406.5C773.7 406 789.3 401 805.2 398.8C821 396.7 837 397.3 852.8 398.7C868.7 400 884.3 402 892.2 403L900 404L900 451L892.2 451C884.3 451 868.7 451 852.8 451C837 451 821 451 805.2 451C789.3 451 773.7 451 758 451C742.3 451 726.7 451 710.8 451C695 451 679 451 663.2 451C647.3 451 631.7 451 615.8 451C600 451 584 451 568.2 451C552.3 451 536.7 451 521 451C505.3 451 489.7 451 473.8 451C458 451 442 451 426.2 451C410.3 451 394.7 451 379 451C363.3 451 347.7 451 331.8 451C316 451 300 451 284.2 451C268.3 451 252.7 451 236.8 451C221 451 205 451 189.2 451C173.3 451 157.7 451 142 451C126.3 451 110.7 451 94.8 451C79 451 63 451 47.2 451C31.3 451 15.7 451 7.8 451L0 451Z"
        fill="#715c1f"></path>
</svg>